<svg width="32" height="37" viewBox="0 0 32 37" fill="none" xmlns="http://www.w3.org/2000/svg">
<path d="M24.4279 28.6345C21.8455 30.3525 18.8093 31.2695 15.7035 31.2695V25.0156C17.567 25.0156 19.3887 24.4654 20.9381 23.4346C22.4876 22.4038 23.6952 20.9387 24.4084 19.2246C25.1215 17.5105 25.3081 15.6243 24.9446 13.8046C24.581 11.9849 23.6836 10.3134 22.3659 9.00148C21.0482 7.68955 19.3694 6.79611 17.5416 6.43415C15.714 6.07219 13.8195 6.25796 12.0978 6.96797C10.3761 7.67798 8.90462 8.88035 7.8693 10.423C6.83399 11.9657 6.28139 13.7794 6.28139 15.6347L0 15.6347C0 12.5425 0.920998 9.51966 2.64652 6.94854C4.37203 4.37743 6.82459 2.37348 9.69403 1.19013C12.5635 0.00677371 15.7209 -0.302845 18.7671 0.300424C21.8133 0.903693 24.6114 2.39276 26.8075 4.57931C29.0037 6.76587 30.4993 9.55171 31.1052 12.5846C31.7112 15.6174 31.4002 18.761 30.2116 21.6179C29.0231 24.4748 27.0103 26.9166 24.4279 28.6345Z" fill="#4BE62E"/>
<path d="M21.1337 16.0731C21.1337 19.2473 18.5492 21.8204 15.361 21.8204C12.1729 21.8204 9.58842 19.2473 9.58842 16.0731C9.58842 12.8989 12.1729 10.3257 15.361 10.3257C18.5492 10.3257 21.1337 12.8989 21.1337 16.0731Z" fill="#4BE62E"/>
<path d="M15.6546 36.822C13.8301 36.822 12.0234 36.4642 10.3378 35.769C8.65215 35.0739 7.12055 34.055 5.83043 32.7705C4.54031 31.486 3.51693 29.9611 2.81871 28.2829C2.12051 26.6046 1.76114 24.8059 1.76114 22.9894H7.31852C7.31852 24.0793 7.53413 25.1585 7.95305 26.1655C8.37198 27.1724 8.98601 28.0874 9.76009 28.8581C10.5342 29.6287 11.4531 30.2401 12.4645 30.6572C13.4759 31.0743 14.5599 31.2889 15.6546 31.2889V36.822Z" fill="#4BE62E"/>
</svg>
